<svg width="16" height="15" viewBox="0 0 16 15" fill="none" xmlns="http://www.w3.org/2000/svg">
<path d="M3.99791 15H0.887416V4.98549H3.99791V15ZM2.44099 3.61942C1.44657 3.61942 0.639648 2.79576 0.639648 1.80134C0.639648 0.80692 1.44657 0 2.44099 0C3.43541 0 4.24233 0.80692 4.24233 1.80134C4.24233 2.79576 3.43541 3.61942 2.44099 3.61942ZM15.6396 15H12.5359V10.125C12.5359 8.96317 12.5124 7.47321 10.9187 7.47321C9.30148 7.47321 9.05371 8.73549 9.05371 10.0413V15H5.94657V4.98549H8.92983V6.35156H8.97335C9.38853 5.56473 10.403 4.73437 11.9164 4.73437C15.0638 4.73437 15.643 6.80692 15.643 9.49888V15H15.6396Z" fill="#f1f1f1"/>
</svg>
