<svg width="16" height="15" viewBox="0 0 16 15" fill="none" xmlns="http://www.w3.org/2000/svg">
<path d="M8.14258 0C4.00705 0 0.642578 3.36448 0.642578 7.5C0.642578 11.6355 4.00705 15 8.14258 15C12.2781 15 15.6426 11.6355 15.6426 7.5C15.6426 3.36448 12.2781 0 8.14258 0ZM13.1013 3.45865C13.9936 4.54875 14.5339 5.93719 14.548 7.44922C14.3368 7.40456 12.2188 6.97497 10.0872 7.24303C9.91327 6.81841 9.74909 6.44486 9.52421 5.98455C11.8928 5.0175 12.9663 3.64134 13.1013 3.45865ZM12.3892 2.71784C12.274 2.88197 11.3096 4.1781 9.03169 5.03193C7.98193 3.10322 6.81843 1.51878 6.64137 1.28168C8.6729 0.791976 10.8137 1.32009 12.3892 2.71784ZM5.41902 1.7123C5.58792 1.94392 6.73267 3.53032 7.79413 5.41721C4.79755 6.21296 2.15824 6.2015 1.87173 6.19772C2.28713 4.20983 3.62679 2.55765 5.41902 1.7123ZM1.73643 7.50977C1.73643 7.44426 1.73773 7.37906 1.7397 7.31401C2.01998 7.31976 5.12437 7.35977 8.32355 6.40234C8.50693 6.76125 8.68212 7.12557 8.84292 7.48951C6.52642 8.14198 4.42173 10.0155 3.38331 11.7931C2.36014 10.6574 1.73643 9.15514 1.73643 7.50977ZM4.21043 12.5636C4.87959 11.1957 6.69565 9.42986 9.27834 8.54879C10.1777 10.886 10.5497 12.8447 10.6449 13.4068C8.58511 14.2842 6.1082 14.0435 4.21043 12.5636ZM11.7219 12.8203C11.6563 12.4306 11.3153 10.5553 10.4774 8.25278C12.4849 7.93143 14.2486 8.45746 14.4677 8.52662C14.1822 10.3091 13.1591 11.8485 11.7219 12.8203Z" fill="#1a1a1a"/>
</svg>
