<svg width="12" height="10" viewBox="0 0 12 10" fill="none" xmlns="http://www.w3.org/2000/svg">
<path d="M5.74824 9.3302L5.25276 9.83856C5.04296 10.0538 4.70372 10.0538 4.49615 9.83856L0.157349 5.38928C-0.0524495 5.17403 -0.0524495 4.82597 0.157349 4.61301L4.49615 0.161438C4.70595 -0.0538127 5.0452 -0.0538127 5.25276 0.161438L5.74824 0.669796C5.96027 0.887337 5.95581 1.24227 5.73932 1.45523L3.04988 4.08404L10.9643 4.10694C11.2612 4.10694 11.5 4.35196 11.5 4.65652V5.38928C11.5 5.69384 11.2612 5.93886 10.9643 5.93886L3.04988 5.91596L5.73932 8.54477C5.95804 8.75773 5.9625 9.11266 5.74824 9.3302Z" fill="#888888"/>
</svg>
