<svg width="22" height="15" viewBox="0 0 22 15" fill="none" xmlns="http://www.w3.org/2000/svg">
<path d="M21.5302 2.34699C21.2848 1.42316 20.5619 0.695586 19.6441 0.448672C17.9804 0 11.3093 0 11.3093 0C11.3093 0 4.63816 0 2.97445 0.448672C2.0566 0.695625 1.33371 1.42316 1.08836 2.34699C0.642578 4.02148 0.642578 7.51516 0.642578 7.51516C0.642578 7.51516 0.642578 11.0088 1.08836 12.6833C1.33371 13.6071 2.0566 14.3044 2.97445 14.5513C4.63816 15 11.3093 15 11.3093 15C11.3093 15 17.9804 15 19.6441 14.5513C20.5619 14.3044 21.2848 13.6071 21.5302 12.6833C21.9759 11.0088 21.9759 7.51516 21.9759 7.51516C21.9759 7.51516 21.9759 4.02148 21.5302 2.34699ZM9.12742 10.6871V4.34316L14.7032 7.51523L9.12742 10.6871Z" fill="#1a1a1a"/>
</svg>
