<svg width="17" height="15" viewBox="0 0 17 15" fill="none" xmlns="http://www.w3.org/2000/svg">
<path d="M6.12226 12.078C6.12226 12.14 6.05093 12.1896 5.96098 12.1896C5.85862 12.1989 5.78728 12.1493 5.78728 12.078C5.78728 12.0159 5.85862 11.9663 5.94857 11.9663C6.04162 11.957 6.12226 12.0066 6.12226 12.078ZM5.15764 11.9384C5.13593 12.0004 5.19796 12.0718 5.29101 12.0904C5.37166 12.1214 5.46471 12.0904 5.48332 12.0284C5.50193 11.9663 5.443 11.895 5.34994 11.8671C5.2693 11.8454 5.17935 11.8764 5.15764 11.9384ZM6.52859 11.8857C6.43864 11.9074 6.3766 11.9663 6.38591 12.0377C6.39521 12.0997 6.47586 12.14 6.56891 12.1183C6.65886 12.0966 6.72089 12.0377 6.71159 11.9756C6.70228 11.9167 6.61854 11.8764 6.52859 11.8857ZM8.5695 0C4.26745 0 0.976562 3.26608 0.976562 7.56812C0.976562 11.0079 3.14154 13.9514 6.23393 14.9874C6.63094 15.0587 6.77052 14.8137 6.77052 14.6121C6.77052 14.4198 6.76121 13.359 6.76121 12.7076C6.76121 12.7076 4.59003 13.1729 4.13408 11.7833C4.13408 11.7833 3.78049 10.8807 3.27181 10.6481C3.27181 10.6481 2.56153 10.1611 3.32144 10.1704C3.32144 10.1704 4.09376 10.2325 4.51869 10.9707C5.19796 12.1679 6.33628 11.8236 6.77982 11.6189C6.85116 11.1227 7.05277 10.7784 7.27609 10.5737C5.54225 10.3814 3.7929 10.1301 3.7929 7.14629C3.7929 6.29333 4.02862 5.86529 4.52489 5.3194C4.44425 5.11779 4.18061 4.28653 4.60554 3.21335C5.25379 3.01174 6.7457 4.05081 6.7457 4.05081C7.36604 3.87711 8.03291 3.78716 8.69357 3.78716C9.35423 3.78716 10.0211 3.87711 10.6414 4.05081C10.6414 4.05081 12.1333 3.00864 12.7816 3.21335C13.2065 4.28964 12.9429 5.11779 12.8622 5.3194C13.3585 5.8684 13.6625 6.29643 13.6625 7.14629C13.6625 10.1394 11.8356 10.3783 10.1017 10.5737C10.3871 10.8187 10.629 11.2839 10.629 12.0128C10.629 13.0581 10.6197 14.3515 10.6197 14.6059C10.6197 14.8075 10.7624 15.0525 11.1563 14.9812C14.258 13.9514 16.3609 11.0079 16.3609 7.56812C16.3609 3.26608 12.8715 0 8.5695 0ZM3.9914 10.6977C3.95108 10.7287 3.96039 10.8001 4.01312 10.859C4.06274 10.9086 4.13408 10.9304 4.1744 10.89C4.21473 10.859 4.20542 10.7877 4.15269 10.7287C4.10307 10.6791 4.03173 10.6574 3.9914 10.6977ZM3.65642 10.4465C3.63471 10.4868 3.66573 10.5364 3.72776 10.5675C3.77739 10.5985 3.83942 10.5892 3.86113 10.5457C3.88285 10.5054 3.85183 10.4558 3.78979 10.4248C3.72776 10.4062 3.67813 10.4155 3.65642 10.4465ZM4.66137 11.5507C4.61174 11.591 4.63035 11.6841 4.70169 11.743C4.77303 11.8143 4.86298 11.8236 4.9033 11.774C4.94362 11.7337 4.92501 11.6406 4.86298 11.5817C4.79474 11.5104 4.70169 11.5011 4.66137 11.5507ZM4.30778 11.0947C4.25815 11.1258 4.25815 11.2064 4.30778 11.2777C4.3574 11.3491 4.44115 11.3801 4.48147 11.3491C4.5311 11.3088 4.5311 11.2281 4.48147 11.1568C4.43805 11.0854 4.3574 11.0544 4.30778 11.0947Z" fill="#888888"/>
</svg>
