<svg width="61" height="25" viewBox="0 0 61 25" fill="none" xmlns="http://www.w3.org/2000/svg">
<path d="M13.2402 25C0.980469 25 0.980469 25 0.980469 12.5C0.980469 0 0.980469 0 13.2402 0C25.4999 0 25.4999 0 25.4999 12.5C25.4999 25 25.4999 25 13.2402 25ZM18.9746 10.2823H13.2402V6.70867C13.2402 6.16936 12.5976 5.89718 12.2268 6.28024L6.57645 12.0716C6.3441 12.3085 6.3441 12.6865 6.57645 12.9234L12.2268 18.7147C12.6025 19.0978 13.2402 18.8256 13.2402 18.2863V14.7177H18.9746C19.3009 14.7177 19.5678 14.4456 19.5678 14.1129V10.8871C19.5678 10.5544 19.3009 10.2823 18.9746 10.2823Z" fill="#1A1A1A"/>
<path d="M47.7597 -1.07178e-06C60.0194 0 60.0194 0 60.0194 12.5C60.0194 25 60.0194 25 47.7597 25C35.4999 25 35.4999 25 35.4999 12.5C35.4999 -2.14356e-06 35.4999 -2.14356e-06 47.7597 -1.07178e-06ZM42.0253 14.7177L47.7597 14.7177L47.7597 18.2913C47.7597 18.8306 48.4023 19.1028 48.7731 18.7198L54.4234 12.9284C54.6558 12.6915 54.6558 12.3135 54.4234 12.0766L48.7731 6.28528C48.3974 5.90222 47.7597 6.1744 47.7597 6.71371L47.7597 10.2823L42.0253 10.2823C41.699 10.2823 41.4321 10.5544 41.4321 10.8871L41.4321 14.1129C41.4321 14.4456 41.699 14.7177 42.0253 14.7177Z" fill="#1A1A1A"/>
</svg>
